<svg xmlns="http://www.w3.org/2000/svg" width="48" height="48" viewBox="0 0 40 40" style="display: block;">
  <path fill="#ffffff" d="M 16.167969 1.242188 C 14.023438 1.683594 12.238281 2.453125 10.089844 3.863281 C 6.894531 5.976562 4.382812 8.394531 1.988281 11.671875 C 0.621094 13.546875 0.363281 14.316406 0.746094 15.230469 C 1.433594 16.894531 4.136719 17.570312 7.367188 16.894531 C 9.433594 16.464844 12.179688 15.277344 12.996094 14.464844 C 13.535156 13.921875 13.683594 13.34375 13.402344 12.835938 C 13.085938 12.261719 12.6875 12.046875 11.863281 12 C 11.1875 11.964844 11.039062 12 9.886719 12.519531 C 9.210938 12.824219 8.226562 13.210938 7.730469 13.367188 C 6.464844 13.761719 4.65625 14.078125 4.507812 13.933594 C 4.339844 13.761719 6.125 11.617188 7.695312 10.113281 C 9.945312 7.953125 12.746094 5.945312 14.519531 5.199219 C 16.136719 4.53125 17.039062 4.363281 19.039062 4.363281 C 20.585938 4.351562 20.996094 4.394531 21.851562 4.621094 C 24.578125 5.332031 26.9375 6.859375 30.148438 9.988281 C 32.914062 12.6875 35.097656 15.3125 35.851562 16.824219 C 36.496094 18.136719 36.292969 19.570312 35.300781 20.679688 C 34.269531 21.808594 33.210938 21.988281 29.71875 21.582031 C 26.28125 21.1875 25.152344 21.355469 23.773438 22.472656 C 22.453125 23.535156 21.84375 24.835938 20.960938 28.441406 C 20.011719 32.316406 19.445312 33.953125 18.203125 36.484375 C 17.820312 37.253906 17.515625 37.964844 17.515625 38.078125 C 17.515625 38.441406 17.886719 38.621094 18.871094 38.757812 C 19.402344 38.824219 19.964844 38.902344 20.125 38.9375 C 20.40625 38.996094 20.472656 38.914062 20.996094 38 C 22.304688 35.707031 23.175781 33.199219 24.113281 28.984375 C 24.632812 26.710938 24.882812 26.054688 25.527344 25.414062 C 26.394531 24.53125 26.65625 24.507812 30.609375 24.925781 C 33.3125 25.210938 34.78125 24.984375 36.339844 24.054688 C 38.226562 22.9375 39.535156 20.632812 39.546875 18.40625 C 39.546875 17.039062 38.800781 15.085938 37.671875 13.558594 C 36.472656 11.921875 33.785156 8.902344 32.25 7.457031 C 28.429688 3.875 25.886719 2.269531 22.644531 1.402344 C 21.660156 1.140625 21.253906 1.097656 19.378906 1.0625 C 17.582031 1.027344 17.0625 1.0625 16.167969 1.242188 "/>
  <path fill="#ffffff" d="M 22.746094 11.074219 C 21.355469 11.910156 21.898438 13.785156 23.535156 13.785156 C 23.988281 13.785156 24.136719 13.730469 24.472656 13.414062 C 25.003906 12.925781 25.117188 12.136719 24.746094 11.546875 C 24.339844 10.882812 23.414062 10.667969 22.746094 11.074219 "/>
</svg>
